Coordinates
version=1
nRows=12
nColumns=24
inDegrees=yes

Units are S.I. units (second, meters, Newtons, ...)
Angles are in degrees.

endheader
time	pelvis_tilt	pelvis_list	pelvis_rotation	pelvis_tx	pelvis_ty	pelvis_tz	hip_flexion_r	hip_adduction_r	hip_rotation_r	knee_angle_r	ankle_angle_r	subtalar_angle_r	mtp_angle_r	hip_flexion_l	hip_adduction_l	hip_rotation_l	knee_angle_l	ankle_angle_l	subtalar_angle_l	mtp_angle_l	lumbar_extension	lumbar_bending	lumbar_rotation
      2.95000000	     91.72107722	     33.68087537	    -92.27083488	      1.02897230	      0.28354626	      1.07717763	     14.50267932	     -6.28842813	      5.72995717	    -66.96503007	     -8.88881534	      0.00000000	      0.00000000	     10.73242225	     -7.12024813	     -6.29481309	    -74.00723846	    -10.43557063	      0.00000000	      0.00000000	      0.00000000	      0.00000000	      0.00000000
      2.96000000	     91.72287679	     33.68782506	    -92.27142010	      1.02897127	      0.28353772	      1.07716947	     14.50433100	     -6.28295278	      5.71040694	    -66.97339347	     -8.94093513	      0.00000000	      0.00000000	     10.74162466	     -7.12132638	     -6.28404592	    -73.97404469	    -10.44388951	      0.00000000	      0.00000000	      0.00000000	      0.00000000	      0.00000000
      2.97000000	     91.72597113	     33.69720362	    -92.27072537	      1.02896732	      0.28353667	      1.07715493	     14.50600699	     -6.28260527	      5.69593929	    -66.99822837	     -8.99803505	      0.00000000	      0.00000000	     10.75356775	     -7.12090529	     -6.27435232	    -73.94412048	    -10.45163707	      0.00000000	      0.00000000	      0.00000000	      0.00000000	      0.00000000
      2.98000000	     91.73113290	     33.70641011	    -92.27025757	      1.02896327	      0.28354098	      1.07713226	     14.50699645	     -6.28621216	      5.68659442	    -67.04444613	     -9.04431078	      0.00000000	      0.00000000	     10.76547623	     -7.11812207	     -6.26603967	    -73.91719757	    -10.45797986	      0.00000000	      0.00000000	      0.00000000	      0.00000000	      0.00000000
      2.99000000	     91.73894919	     33.71257429	    -92.27062768	      1.02895449	      0.28354674	      1.07710579	     14.50663437	     -6.29374163	      5.68246429	    -67.11710297	     -9.06623291	      0.00000000	      0.00000000	     10.77466100	     -7.11227629	     -6.25934937	    -73.89310458	    -10.46252791	      0.00000000	      0.00000000	      0.00000000	      0.00000000	      0.00000000
      3.00000000	     91.74953064	     33.71406543	    -92.27178877	      1.02894287	      0.28355269	      1.07708955	     14.50310993	     -6.30653005	      5.68397519	    -67.21853038	     -9.05544572	      0.00000000	      0.00000000	     10.77983666	     -7.10342992	     -6.25432195	    -73.87186107	    -10.46521398	      0.00000000	      0.00000000	      0.00000000	      0.00000000	      0.00000000
      3.01000000	     91.76252135	     33.71161252	    -92.27363135	      1.02893237	      0.28356434	      1.07709494	     14.49289698	     -6.32638374	      5.69096062	    -67.34720713	     -9.01162676	      0.00000000	      0.00000000	     10.78174884	     -7.09257007	     -6.25091034	    -73.85368144	    -10.46608056	      0.00000000	      0.00000000	      0.00000000	      0.00000000	      0.00000000
      3.02000000	     91.77706153	     33.70786204	    -92.27599956	      1.02891308	      0.28358427	      1.07711091	     14.47251194	     -6.35441629	      5.70144657	    -67.49820022	     -8.94404856	      0.00000000	      0.00000000	     10.78220459	     -7.08112063	     -6.24933217	    -73.83910855	    -10.46514637	      0.00000000	      0.00000000	      0.00000000	      0.00000000	      0.00000000
      3.03000000	     91.79181005	     33.70457180	    -92.27824588	      1.02887479	      0.28360191	      1.07710935	     14.44259001	     -6.39017665	      5.71123539	    -67.66420748	     -8.87024466	      0.00000000	      0.00000000	     10.78212935	     -7.07016927	     -6.25024071	    -73.82911781	    -10.46245033	      0.00000000	      0.00000000	      0.00000000	      0.00000000	      0.00000000
      3.04000000	     91.80538295	     33.70026369	    -92.27936952	      1.02883031	      0.28360711	      1.07708384	     14.40994867	     -6.43120225	      5.71500073	    -67.83753135	     -8.81120454	      0.00000000	      0.00000000	     10.78053464	     -7.06012123	     -6.25427974	    -73.82493434	    -10.45821287	      0.00000000	      0.00000000	      0.00000000	      0.00000000	      0.00000000
      3.05000000	     91.81700141	     33.69212192	    -92.27893244	      1.02880843	      0.28361230	      1.07706104	     14.38318065	     -6.47349392	      5.70909931	    -68.01319516	     -8.78434485	      0.00000000	      0.00000000	     10.77577250	     -7.05108522	     -6.26129566	    -73.82744826	    -10.45292552	      0.00000000	      0.00000000	      0.00000000	      0.00000000	      0.00000000
      3.06000000	     91.82648919	     33.68042573	    -92.27743373	      1.02882267	      0.28364224	      1.07706225	     14.36493509	     -6.51355228	      5.69510733	    -68.19110185	     -8.79681310	      0.00000000	      0.00000000	     10.76806981	     -7.04355770	     -6.26998494	    -73.83650033	    -10.44722720	      0.00000000	      0.00000000	      0.00000000	      0.00000000	      0.00000000
